<svg width="70" height="67" viewBox="0 0 70 67" fill="none" xmlns="http://www.w3.org/2000/svg">
<path d="M22.745 43.2214C34.4854 43.2214 44.0029 33.8472 44.0029 22.2835C44.0029 10.7199 34.4854 1.3457 22.745 1.3457C11.0046 1.3457 1.48718 10.7199 1.48718 22.2835C1.48718 33.8472 11.0046 43.2214 22.745 43.2214Z" fill="#25A75C" stroke="#22202D" stroke-width="1.52426"/>
<path d="M22.745 37.9566C31.5333 37.9566 38.6576 30.9397 38.6576 22.2839C38.6576 13.6282 31.5333 6.61133 22.745 6.61133C13.9567 6.61133 6.8324 13.6282 6.8324 22.2839C6.8324 30.9397 13.9567 37.9566 22.745 37.9566Z" fill="white" stroke="#22202D" stroke-width="1.52426"/>
<path d="M15.3838 22.2836H22.846V12.8768" stroke="#22202D" stroke-width="1.52426" stroke-linecap="round" stroke-linejoin="round"/>
<path d="M22.7449 6.76562V9.84255" stroke="#22202D" stroke-width="1.52426" stroke-linecap="round"/>
<path d="M22.7449 35.3184V38.0568" stroke="#22202D" stroke-width="1.52426" stroke-linecap="round"/>
<path d="M7.09949 22.4103H10.1764" stroke="#22202D" stroke-width="1.52426" stroke-linecap="round"/>
<path d="M35.6521 22.4103H38.3893" stroke="#22202D" stroke-width="1.52426" stroke-linecap="round"/>
<path d="M69.1795 37.0371H16.2564V65.3448H69.1795V37.0371Z" fill="#25A75C" stroke="#22202D" stroke-width="1.52426" stroke-linecap="round" stroke-linejoin="round"/>
<path d="M65.7149 57.1201V43.6825C64.6968 43.6825 63.7204 43.2781 63.0004 42.5582C62.2805 41.8383 61.8761 40.8619 61.8761 39.8438H23.4847C23.4847 40.8619 23.0803 41.8383 22.3604 42.5582C21.6404 43.2781 20.664 43.6825 19.6459 43.6825V57.1201C20.664 57.1201 21.6404 57.5245 22.3604 58.2444C23.0803 58.9643 23.4847 59.9407 23.4847 60.9588H61.8761C61.8761 59.9407 62.2805 58.9643 63.0004 58.2444C63.7204 57.5245 64.6968 57.1201 65.7149 57.1201Z" fill="#F7F7F7" stroke="#22202D" stroke-width="1.52426" stroke-linecap="round" stroke-linejoin="round"/>
<path d="M42.6798 60.9588C47.0525 60.9588 50.5973 56.2321 50.5973 50.4013C50.5973 44.5705 47.0525 39.8438 42.6798 39.8438C38.3071 39.8438 34.7623 44.5705 34.7623 50.4013C34.7623 56.2321 38.3071 60.9588 42.6798 60.9588Z" fill="#25A75C" stroke="#22202D" stroke-width="1.52426"/>
<path d="M57.4871 51.8056C58.5067 51.8056 59.3333 50.979 59.3333 49.9594C59.3333 48.9398 58.5067 48.1133 57.4871 48.1133C56.4675 48.1133 55.641 48.9398 55.641 49.9594C55.641 50.979 56.4675 51.8056 57.4871 51.8056Z" fill="#25A75C" stroke="#22202D" stroke-width="1.52426"/>
<path d="M27.9487 51.8056C28.9683 51.8056 29.7948 50.979 29.7948 49.9594C29.7948 48.9398 28.9683 48.1133 27.9487 48.1133C26.9291 48.1133 26.1025 48.9398 26.1025 49.9594C26.1025 50.979 26.9291 51.8056 27.9487 51.8056Z" fill="#25A75C" stroke="#22202D" stroke-width="1.52426"/>
<path d="M48.4275 57.6476C47.4768 56.7487 46.3053 56.1173 45.0318 55.8174C44.923 55.7998 44.8245 55.743 44.7547 55.6578C44.6849 55.5726 44.6486 55.4648 44.6527 55.3547C44.6638 55.1085 44.6638 54.8427 44.6626 54.5682C44.6626 53.938 45.4207 53.1787 45.4626 52.295C45.6956 51.8464 45.8307 51.3535 45.8589 50.8488C45.8679 50.7493 45.8566 50.6491 45.8257 50.5541C45.7948 50.4591 45.745 50.3714 45.6792 50.2962C45.7407 49.9664 45.7936 49.618 45.8589 49.2599C46.0452 48.671 45.991 48.0323 45.708 47.4833C45.4251 46.9342 44.9364 46.5194 44.3487 46.3294C43.2654 46.1286 42.2282 45.7301 41.289 45.154C41.033 44.9079 41.209 46.3011 40.9764 46.4057C40.4083 46.5972 39.9367 47.0019 39.6612 47.5344C39.3857 48.0668 39.3277 48.6855 39.4995 49.2599C39.5635 49.618 39.6226 49.9664 39.6792 50.2962C39.6134 50.3714 39.5636 50.4591 39.5327 50.5541C39.5018 50.6491 39.4905 50.7493 39.4995 50.8488C39.5277 51.3535 39.6628 51.8464 39.8958 52.295C39.9376 53.1799 40.6958 53.895 40.6958 54.5682C40.6958 54.8427 40.6958 55.106 40.7056 55.3547C40.7098 55.4648 40.6735 55.5726 40.6037 55.6578C40.5339 55.743 40.4353 55.7998 40.3266 55.8174C39.0531 56.1173 37.8815 56.7487 36.9309 57.6476C37.5501 58.6228 38.3965 59.4334 39.3975 60.01C40.3985 60.5866 41.5243 60.912 42.6786 60.9584C43.8328 60.912 44.9587 60.5866 45.9597 60.01C46.9607 59.4334 47.807 58.6228 48.4263 57.6476H48.4275Z" fill="#F7F7F7" stroke="#22202D" stroke-width="1.52426" stroke-linecap="round" stroke-linejoin="round"/>
</svg>
