<svg width="20" height="21" viewBox="0 0 20 21" fill="none" xmlns="http://www.w3.org/2000/svg">
<path d="M0 10.56C0.000563232 12.956 0.850471 15.2732 2.39696 17.0952C3.94345 18.9171 6.08511 20.1244 8.437 20.4999V13.4678H5.9V10.56H8.44V8.34639C8.38391 7.8283 8.44189 7.30414 8.60982 6.81114C8.77775 6.31814 9.0515 5.86839 9.41164 5.49384C9.77178 5.11928 10.2095 4.8291 10.6936 4.64392C11.1778 4.45873 11.6965 4.38308 12.213 4.42234C12.963 4.43441 13.713 4.50182 14.453 4.62357V7.09773H13.189C12.9742 7.06942 12.7558 7.09005 12.5499 7.15809C12.3441 7.22612 12.1561 7.33983 11.9998 7.49081C11.8435 7.64179 11.7229 7.82618 11.647 8.03035C11.571 8.23451 11.5416 8.45325 11.561 8.67037V10.56H14.332L13.889 13.4688H11.561V20.4999C13.4486 20.1997 15.2112 19.3616 16.6402 18.0848C18.0691 16.8081 19.1045 15.146 19.6238 13.2955C20.143 11.4451 20.1244 9.4836 19.5702 7.64341C19.0159 5.80323 17.9492 4.16137 16.4964 2.91223C15.0435 1.66308 13.2653 0.858967 11.3724 0.595084C9.4794 0.331202 7.55092 0.618602 5.81525 1.42326C4.07958 2.22792 2.60942 3.51613 1.5788 5.13539C0.548194 6.75464 0.00030337 8.63712 0 10.56Z" fill="#979797"/>
</svg>
