<svg width="20" height="21" viewBox="0 0 20 21" fill="none" xmlns="http://www.w3.org/2000/svg">
<path fill-rule="evenodd" clip-rule="evenodd" d="M5.87727 0.56C6.94364 0.510909 7.28364 0.5 10 0.5C12.7164 0.5 13.0564 0.511818 14.1218 0.56C15.1873 0.608182 15.9145 0.778182 16.5509 1.02455C17.2173 1.27636 17.8218 1.67 18.3218 2.17909C18.8309 2.67818 19.2236 3.28182 19.4745 3.94909C19.7218 4.58545 19.8909 5.31273 19.94 6.37636C19.9891 7.44455 20 7.78455 20 10.5C20 13.2164 19.9882 13.5564 19.94 14.6227C19.8918 15.6864 19.7218 16.4136 19.4745 17.05C19.2236 17.7174 18.8303 18.322 18.3218 18.8218C17.8218 19.3309 17.2173 19.7236 16.5509 19.9745C15.9145 20.2218 15.1873 20.3909 14.1236 20.44C13.0564 20.4891 12.7164 20.5 10 20.5C7.28364 20.5 6.94364 20.4882 5.87727 20.44C4.81364 20.3918 4.08636 20.2218 3.45 19.9745C2.78266 19.7236 2.17802 19.3302 1.67818 18.8218C1.16944 18.3224 0.775741 17.7181 0.524545 17.0509C0.278182 16.4145 0.109091 15.6873 0.06 14.6236C0.0109091 13.5555 0 13.2155 0 10.5C0 7.78364 0.0118182 7.44364 0.06 6.37818C0.108182 5.31273 0.278182 4.58545 0.524545 3.94909C0.776112 3.28189 1.17011 2.67756 1.67909 2.17818C2.17822 1.66955 2.78225 1.27586 3.44909 1.02455C4.08545 0.778182 4.81273 0.609091 5.87636 0.56H5.87727ZM14.0409 2.36C12.9864 2.31182 12.67 2.30182 10 2.30182C7.33 2.30182 7.01364 2.31182 5.95909 2.36C4.98364 2.40455 4.45455 2.56727 4.10182 2.70455C3.63545 2.88636 3.30182 3.10182 2.95182 3.45182C2.62004 3.77459 2.36471 4.16753 2.20455 4.60182C2.06727 4.95455 1.90455 5.48364 1.86 6.45909C1.81182 7.51364 1.80182 7.83 1.80182 10.5C1.80182 13.17 1.81182 13.4864 1.86 14.5409C1.90455 15.5164 2.06727 16.0455 2.20455 16.3982C2.36455 16.8318 2.62 17.2255 2.95182 17.5482C3.27455 17.88 3.66818 18.1355 4.10182 18.2955C4.45455 18.4327 4.98364 18.5955 5.95909 18.64C7.01364 18.6882 7.32909 18.6982 10 18.6982C12.6709 18.6982 12.9864 18.6882 14.0409 18.64C15.0164 18.5955 15.5455 18.4327 15.8982 18.2955C16.3645 18.1136 16.6982 17.8982 17.0482 17.5482C17.38 17.2255 17.6355 16.8318 17.7955 16.3982C17.9327 16.0455 18.0955 15.5164 18.14 14.5409C18.1882 13.4864 18.1982 13.17 18.1982 10.5C18.1982 7.83 18.1882 7.51364 18.14 6.45909C18.0955 5.48364 17.9327 4.95455 17.7955 4.60182C17.6136 4.13545 17.3982 3.80182 17.0482 3.45182C16.7254 3.12006 16.3325 2.86474 15.8982 2.70455C15.5455 2.56727 15.0164 2.40455 14.0409 2.36ZM8.72273 13.5827C9.43605 13.8797 10.2303 13.9197 10.9699 13.6961C11.7095 13.4725 12.3485 12.999 12.7778 12.3566C13.2071 11.7142 13.4001 10.9426 13.3237 10.1737C13.2473 9.40485 12.9064 8.68634 12.3591 8.14091C12.0102 7.79225 11.5884 7.52528 11.1239 7.35922C10.6595 7.19317 10.164 7.13215 9.67318 7.18056C9.18233 7.22897 8.70832 7.38562 8.28528 7.63921C7.86223 7.8928 7.50068 8.23704 7.22664 8.64714C6.9526 9.05723 6.7729 9.52299 6.70047 10.0109C6.62804 10.4988 6.66468 10.9966 6.80776 11.4687C6.95084 11.9407 7.1968 12.3751 7.52793 12.7407C7.85906 13.1062 8.26711 13.3938 8.72273 13.5827ZM6.36545 6.86545C6.84275 6.38816 7.40938 6.00955 8.033 5.75124C8.65662 5.49293 9.325 5.35998 10 5.35998C10.675 5.35998 11.3434 5.49293 11.967 5.75124C12.5906 6.00955 13.1573 6.38816 13.6345 6.86545C14.1118 7.34275 14.4905 7.90938 14.7488 8.533C15.0071 9.15662 15.14 9.825 15.14 10.5C15.14 11.175 15.0071 11.8434 14.7488 12.467C14.4905 13.0906 14.1118 13.6573 13.6345 14.1345C12.6706 15.0985 11.3632 15.64 10 15.64C8.63678 15.64 7.3294 15.0985 6.36545 14.1345C5.40151 13.1706 4.85998 11.8632 4.85998 10.5C4.85998 9.13678 5.40151 7.8294 6.36545 6.86545ZM16.28 6.12545C16.3983 6.01388 16.493 5.87971 16.5585 5.73089C16.624 5.58206 16.6589 5.42161 16.6613 5.25903C16.6637 5.09645 16.6334 4.93504 16.5723 4.78437C16.5111 4.6337 16.4204 4.49683 16.3054 4.38185C16.1904 4.26688 16.0536 4.17614 15.9029 4.11502C15.7522 4.05389 15.5908 4.02361 15.4282 4.02598C15.2657 4.02835 15.1052 4.06332 14.9564 4.12881C14.8076 4.19431 14.6734 4.289 14.5618 4.40727C14.3448 4.6373 14.226 4.94284 14.2306 5.25903C14.2352 5.57522 14.3629 5.87716 14.5865 6.10077C14.8101 6.32437 15.1121 6.45203 15.4282 6.45664C15.7444 6.46125 16.05 6.34245 16.28 6.12545Z" fill="#979797"/>
</svg>
