<svg width="60" height="69" viewBox="0 0 60 69" fill="none" xmlns="http://www.w3.org/2000/svg">
<path d="M41.6154 0.654297H4.69231C2.6531 0.654297 1 2.3074 1 4.34661V64.6543C1 66.6935 2.6531 68.3466 4.69231 68.3466H41.6154C43.6546 68.3466 45.3077 66.6935 45.3077 64.6543V4.34661C45.3077 2.3074 43.6546 0.654297 41.6154 0.654297Z" fill="#25A75C"/>
<path d="M41.6154 1.26965H4.69228C2.99294 1.26965 1.61536 2.64724 1.61536 4.34658V64.6543C1.61536 66.3536 2.99294 67.7312 4.69228 67.7312H41.6154C43.3147 67.7312 44.6923 66.3536 44.6923 64.6543V4.34658C44.6923 2.64724 43.3147 1.26965 41.6154 1.26965Z" stroke="#22202D" stroke-width="1.52426"/>
<path d="M35.4615 6.80859H10.8461C8.80691 6.80859 7.15381 8.4617 7.15381 10.5009V53.5778C7.15381 55.617 8.80691 57.2701 10.8461 57.2701H35.4615C37.5007 57.2701 39.1538 55.617 39.1538 53.5778V10.5009C39.1538 8.4617 37.5007 6.80859 35.4615 6.80859Z" fill="#F7F7F7"/>
<path d="M35.4615 7.42395H10.8461C9.14675 7.42395 7.76917 8.80154 7.76917 10.5009V53.5778C7.76917 55.2771 9.14675 56.6547 10.8461 56.6547H35.4615C37.1608 56.6547 38.5384 55.2771 38.5384 53.5778V10.5009C38.5384 8.80154 37.1608 7.42395 35.4615 7.42395Z" stroke="#22202D" stroke-width="1.52426"/>
<path d="M17.9575 61.3906H28.3489" stroke="white" stroke-width="3.04851" stroke-linecap="round"/>
<path d="M38.9619 46.4411C37.3078 47.5636 29.4678 46.9556 30.5927 46.9125C31.4825 46.878 33.5342 45.1033 34.5201 44.2048C31.4899 41.9761 29.4079 38.69 28.6871 34.9982C27.9663 31.3064 28.6593 27.4785 30.6286 24.2737C32.5979 21.0689 35.6998 18.7212 39.319 17.6963C42.9381 16.6714 46.8104 17.0441 50.1676 18.7404C53.5249 20.4368 56.1221 23.333 57.444 26.8545C58.766 30.3761 58.7162 34.2659 57.3045 37.7525C55.8928 41.239 53.2224 44.0677 49.8227 45.6776C46.4231 47.2874 42.5426 47.5608 38.9509 46.4436L38.9619 46.4411Z" fill="white" stroke="#22202D" stroke-width="1.52426" stroke-linecap="round" stroke-linejoin="round"/>
</svg>
