<svg width="24" height="19" viewBox="0 0 24 19" fill="none" xmlns="http://www.w3.org/2000/svg">
<path d="M23.643 2.43659C22.808 2.80659 21.911 3.05659 20.968 3.16959C21.941 2.58738 22.669 1.67105 23.016 0.591589C22.1019 1.13458 21.1014 1.51678 20.058 1.72159C19.3564 0.972454 18.4271 0.475915 17.4143 0.309063C16.4016 0.142211 15.3621 0.31438 14.4572 0.798841C13.5524 1.2833 12.8328 2.05295 12.4102 2.98829C11.9875 3.92363 11.8855 4.97234 12.12 5.97159C10.2677 5.87858 8.45564 5.39714 6.80144 4.55849C5.14723 3.71985 3.68785 2.54275 2.51801 1.10359C2.11801 1.79359 1.88801 2.59359 1.88801 3.44559C1.88757 4.21258 2.07644 4.96783 2.43789 5.64432C2.79934 6.32081 3.32217 6.89763 3.96001 7.32359C3.22029 7.30005 2.49688 7.10017 1.85001 6.74059V6.80059C1.84994 7.87633 2.22204 8.91897 2.90319 9.75159C3.58434 10.5842 4.53258 11.1555 5.58701 11.3686C4.9008 11.5543 4.18135 11.5817 3.48301 11.4486C3.78051 12.3742 4.36001 13.1836 5.14038 13.7635C5.92075 14.3434 6.86293 14.6648 7.83501 14.6826C6.18484 15.978 4.1469 16.6807 2.04901 16.6776C1.67739 16.6777 1.30609 16.656 0.937012 16.6126C3.06649 17.9818 5.54535 18.7084 8.07701 18.7056C16.647 18.7056 21.332 11.6076 21.332 5.45159C21.332 5.25159 21.327 5.04959 21.318 4.84959C22.2293 4.19056 23.0159 3.37448 23.641 2.43959L23.643 2.43659Z" fill="#979797"/>
</svg>
